REM MD5 786a284ef28e71336debce138e5376ae
FILE "Tomb Raider (USA) (Rev 6).bin" BINARY
  TRACK 01 MODE2/2352
    INDEX 01 00:00:00
  TRACK 02 AUDIO
    INDEX 00 32:26:61
    INDEX 01 32:28:61
  TRACK 03 AUDIO
    INDEX 00 35:43:29
    INDEX 01 35:45:29
  TRACK 04 AUDIO
    INDEX 00 36:47:27
    INDEX 01 36:49:27
  TRACK 05 AUDIO
    INDEX 00 38:50:66
    INDEX 01 38:52:66
  TRACK 06 AUDIO
    INDEX 00 40:51:02
    INDEX 01 40:53:02
  TRACK 07 AUDIO
    INDEX 00 42:08:01
    INDEX 01 42:10:01
  TRACK 08 AUDIO
    INDEX 00 43:03:67
    INDEX 01 43:05:67
  TRACK 09 AUDIO
    INDEX 00 44:12:11
    INDEX 01 44:14:11
  TRACK 10 AUDIO
    INDEX 00 44:52:17
    INDEX 01 44:54:17
  TRACK 11 AUDIO
    INDEX 00 46:11:38
    INDEX 01 46:13:38
  TRACK 12 AUDIO
    INDEX 00 46:20:00
    INDEX 01 46:22:00
  TRACK 13 AUDIO
    INDEX 00 46:34:74
    INDEX 01 46:36:74
  TRACK 14 AUDIO
    INDEX 00 46:42:02
    INDEX 01 46:44:02
  TRACK 15 AUDIO
    INDEX 00 46:54:07
    INDEX 01 46:56:07
  TRACK 16 AUDIO
    INDEX 00 47:05:10
    INDEX 01 47:07:10
  TRACK 17 AUDIO
    INDEX 00 47:43:73
    INDEX 01 47:45:73
  TRACK 18 AUDIO
    INDEX 00 48:26:62
    INDEX 01 48:28:62
  TRACK 19 AUDIO
    INDEX 00 48:52:11
    INDEX 01 48:54:11
  TRACK 20 AUDIO
    INDEX 00 50:20:56
    INDEX 01 50:22:56
  TRACK 21 AUDIO
    INDEX 00 51:14:73
    INDEX 01 51:16:73
  TRACK 22 AUDIO
    INDEX 00 51:56:15
    INDEX 01 51:58:15
  TRACK 23 AUDIO
    INDEX 00 52:59:53
    INDEX 01 53:01:53
  TRACK 24 AUDIO
    INDEX 00 53:57:22
    INDEX 01 53:59:22
  TRACK 25 AUDIO
    INDEX 00 54:12:50
    INDEX 01 54:14:50
  TRACK 26 AUDIO
    INDEX 00 54:49:38
    INDEX 01 54:51:38
  TRACK 27 AUDIO
    INDEX 00 54:56:39
    INDEX 01 54:58:39
  TRACK 28 AUDIO
    INDEX 00 55:03:40
    INDEX 01 55:05:40
  TRACK 29 AUDIO
    INDEX 00 55:10:40
    INDEX 01 55:12:40
  TRACK 30 AUDIO
    INDEX 00 55:17:41
    INDEX 01 55:19:41
  TRACK 31 AUDIO
    INDEX 00 55:25:39
    INDEX 01 55:27:39
  TRACK 32 AUDIO
    INDEX 00 55:32:40
    INDEX 01 55:34:40
  TRACK 33 AUDIO
    INDEX 00 55:42:03
    INDEX 01 55:44:03
  TRACK 34 AUDIO
    INDEX 00 55:51:45
    INDEX 01 55:53:45
  TRACK 35 AUDIO
    INDEX 00 55:59:17
    INDEX 01 56:01:17
  TRACK 36 AUDIO
    INDEX 00 56:06:31
    INDEX 01 56:08:31
  TRACK 37 AUDIO
    INDEX 00 56:23:27
    INDEX 01 56:25:27
  TRACK 38 AUDIO
    INDEX 00 56:30:28
    INDEX 01 56:32:28
  TRACK 39 AUDIO
    INDEX 00 56:37:29
    INDEX 01 56:39:29
  TRACK 40 AUDIO
    INDEX 00 56:53:35
    INDEX 01 56:55:35
  TRACK 41 AUDIO
    INDEX 00 57:04:00
    INDEX 01 57:06:00
  TRACK 42 AUDIO
    INDEX 00 57:11:01
    INDEX 01 57:13:01
  TRACK 43 AUDIO
    INDEX 00 57:18:01
    INDEX 01 57:20:01
  TRACK 44 AUDIO
    INDEX 00 57:27:14
    INDEX 01 57:29:14
  TRACK 45 AUDIO
    INDEX 00 57:35:38
    INDEX 01 57:37:38
  TRACK 46 AUDIO
    INDEX 00 57:45:29
    INDEX 01 57:47:29
  TRACK 47 AUDIO
    INDEX 00 57:52:30
    INDEX 01 57:54:30
  TRACK 48 AUDIO
    INDEX 00 57:59:31
    INDEX 01 58:01:31
  TRACK 49 AUDIO
    INDEX 00 58:06:32
    INDEX 01 58:08:32
  TRACK 50 AUDIO
    INDEX 00 58:22:28
    INDEX 01 58:24:28
  TRACK 51 AUDIO
    INDEX 00 58:29:28
    INDEX 01 58:31:28
  TRACK 52 AUDIO
    INDEX 00 58:36:28
    INDEX 01 58:38:28
  TRACK 53 AUDIO
    INDEX 00 58:43:29
    INDEX 01 58:45:29
  TRACK 54 AUDIO
    INDEX 00 58:52:49
    INDEX 01 58:54:49
  TRACK 55 AUDIO
    INDEX 00 58:59:50
    INDEX 01 59:01:50
  TRACK 56 AUDIO
    INDEX 00 59:09:29
    INDEX 01 59:11:29
  TRACK 57 AUDIO
    INDEX 00 59:16:30
    INDEX 01 59:18:30
REM LEADOUT 62:35:30
